#!OML:ASF H:\Terrain\Patient Classification 1\Terrain2\Thursday\justin.ASF
:FULLY-SPECIFIED
:DEGREES
2801
root 30.267 18.1582 22.7202 1628.12 34.6878 -532.17
lowerback 8.53933 0.594488 5.15724
upperback 2.8392 1.70647 4.73462
thorax -1.84916 1.00297 1.83274
lowerneck -16.2762 -0.0351441 -5.19092
upperneck 29.5418 3.07792 -0.585474
head 12.4551 1.17272 1.24311
rclavicle 1.92821e-014 -6.36111e-015
rhumerus -26.1233 -6.87208 -78.9231
rradius 21.4722
rwrist -1.9494
rhand -18.3705 13.0782
rfingers 7.12502
rthumb 7.91277 -16.7537
lclavicle 1.92821e-014 -6.36111e-015
lhumerus -36.4839 1.78324 87.1624
lradius 39.499
lwrist 5.8679
lhand -15.495 19.9626
lfingers 7.12502
lthumb 10.6873 49.6708
rfemur -9.1218 0.163569 24.2406
rtibia 26.2656
rfoot -17.8327 1.45676
rtoes 6.8699
lfemur -17.1246 -5.32615 -11.5495
ltibia 33.4885
lfoot -15.1112 -3.22586
ltoes -0.427859
2802
root 30.2962 18.1813 22.7382 1628.22 33.9934 -532.307
lowerback 8.40163 0.773023 4.86706
upperback 2.71413 1.9203 4.87428
thorax -1.91608 1.1071 2.1199
lowerneck -16.2738 -0.130616 -5.24878
upperneck 29.5756 2.95411 -0.518302
head 12.4697 1.12551 1.26166
rclavicle -2.18663e-015 -3.18055e-014
rhumerus -26.1105 -6.91451 -78.7093
rradius 21.6922
rwrist -2.83706
rhand -18.6314 12.3866
rfingers 7.12502
rthumb 7.66098 -17.4546
lclavicle -2.18663e-015 -3.18055e-014
lhumerus -36.75 1.73148 87.4006
lradius 39.2648
lwrist 5.5775
lhand -15.9282 19.8786
lfingers 7.12502
lthumb 10.2695 49.6079
rfemur -9.31354 -0.276786 24.3209
rtibia 26.3433
rfoot -17.8489 1.24259
rtoes 6.46344
lfemur -17.578 -3.19336 -11.9567
ltibia 33.9928
lfoot -15.266 -1.66215
ltoes 1.42856
2803
root 30.3125 18.1422 22.753 1627.87 32.9024 -532.69
lowerback 8.48807 0.664451 4.73704
upperback 2.68226 1.77677 4.88112
thorax -2.00086 1.0351 2.21177
lowerneck -16.4807 -0.11368 -5.23601
upperneck 29.7655 3.03152 -0.547307
head 12.5895 1.15795 1.26742
rclavicle 8.78628e-014 3.10104e-014
rhumerus -26.0872 -6.95998 -78.4613
rradius 21.9277
rwrist -2.92856
rhand -18.3645 12.1835
rfingers 7.12502
rthumb 7.91856 -17.6482
lclavicle 8.78628e-014 3.10104e-014
lhumerus -36.9527 2.09272 87.3612
lradius 38.9125
lwrist 5.20149
lhand -16.1661 19.8187
lfingers 7.12502
lthumb 10.0399 49.5592
rfemur -9.23176 -0.901172 24.1837
rtibia 26.5152
rfoot -18.0411 0.769363
rtoes 6.48
lfemur -17.3007 -0.24694 -13.044
ltibia 34.5075
lfoot -15.8832 1.87052
ltoes -22.4059
2804
root 30.3347 18.1659 22.7676 1627.61 31.8584 -533.082
lowerback 8.37567 0.544194 4.53675
upperback 2.71763 1.58579 4.83875
thorax -1.90476 0.940722 2.30081
lowerneck -16.6472 -0.10206 -5.2298
upperneck 29.7799 3.03311 -0.475975
head 12.628 1.1657 1.29599
rclavicle -3.61788e-014 1.35174e-014
rhumerus -25.9729 -7.16853 -78.0567
rradius 22.0893
rwrist -2.19295
rhand -18.4695 12.5385
rfingers 7.12502
rthumb 7.81724 -17.297
lclavicle -3.61788e-014 1.35174e-014
lhumerus -36.8805 2.52231 87.1878
lradius 38.4706
lwrist 4.95817
lhand -15.7837 20.6579
lfingers 7.12502
lthumb 10.4088 50.3803
rfemur -9.10275 -0.844316 24.0784
rtibia 26.5098
rfoot -18.1978 -0.172597
rtoes 6.99879
lfemur -17.3878 0.393183 -13.4382
ltibia 35.0709
lfoot -16.1679 1.89953
ltoes -10.6841
2805
root 30.3551 18.1753 22.784 1627.62 30.9342 -533.06
lowerback 8.25827 0.528694 4.67388
upperback 2.76038 1.57429 4.86873
thorax -1.79277 0.940742 2.25872
lowerneck -16.7383 -0.161309 -5.41946
upperneck 29.6829 2.89639 -0.17534
head 12.6013 1.12089 1.42076
rclavicle -3.65764e-014 -3.65764e-014
rhumerus -25.9219 -6.34639 -78.1526
rradius 22.5983
rwrist -4.0396
rhand -19.1999 12.3486
rfingers 7.12502
rthumb 7.11216 -17.5119
lclavicle -3.65764e-014 -3.65764e-014
lhumerus -36.795 2.79713 87.0599
lradius 38.1099
lwrist 4.6011
lhand -13.7853 23.0415
lfingers 7.12502
lthumb 12.3361 52.6576
rfemur -9.08494 -0.908193 24.3127
rtibia 26.5637
rfoot -18.2744 -0.720791
rtoes 7.68655
lfemur -17.5958 1.87823 -13.6135
ltibia 35.664
lfoot -16.3045 2.64026
ltoes -4.64553
2806
root 30.3743 18.1799 22.7966 1627.65 30.1535 -533.085
lowerback 8.1571 0.586658 4.79324
upperback 2.7599 1.6524 4.82902
thorax -1.73324 0.980968 2.14484
lowerneck -16.9051 -0.200092 -5.43633
upperneck 29.6476 2.81223 -0.0639979
head 12.621 1.09349 1.45429
rclavicle -4.4329e-014 -2.78299e-014
rhumerus -25.9122 -6.20555 -78.1403
rradius 23.1073
rwrist -4.93683
rhand -19.3188 12.0836
rfingers 7.12502
rthumb 6.99739 -17.7808
lclavicle -4.4329e-014 -2.78299e-014
lhumerus -36.6746 2.9797 86.8762
lradius 37.4695
lwrist 4.21856
lhand -13.4051 23.9545
lfingers 7.12502
lthumb 12.7026 53.5482
rfemur -8.99048 -1.30888 24.4553
rtibia 26.2665
rfoot -18.0726 -1.01661
rtoes 7.81582
lfemur -17.9427 4.03778 -14.0182
ltibia 36.3064
lfoot -16.016 3.83202
ltoes -6.05964
2807
root 30.3957 18.1885 22.8014 1627.47 29.2429 -533.194
lowerback 8.18311 0.514712 4.74961
upperback 2.7642 1.5639 4.87686
thorax -1.74561 0.939794 2.227
lowerneck -16.9369 -0.210941 -5.56843
upperneck 29.5142 2.79476 0.0244014
head 12.5705 1.08263 1.50524
rclavicle -2.28602e-014 -3.49861e-014
rhumerus -25.8347 -6.22148 -77.9099
rradius 23.4209
rwrist -5.21671
rhand -18.9017 12.4555
rfingers 7.12502
rthumb 7.40006 -17.3951
lclavicle -2.28602e-014 -3.49861e-014
lhumerus -36.7025 3.37246 86.8262
lradius 36.7803
lwrist 4.19614
lhand -16.2101 21.5064
lfingers 7.12502
lthumb 9.99751 51.249
rfemur -8.71054 -1.58206 24.5458
rtibia 26.0875
rfoot -17.9987 -1.64031
rtoes 7.67295
lfemur -18.0695 6.03864 -14.4399
ltibia 36.9005
lfoot -15.5895 4.37171
ltoes -4.54573
2808
root 30.4161 18.1963 22.8012 1627.3 28.3591 -533.238
lowerback 8.19412 0.250912 4.47174
upperback 2.68954 1.23181 5.24534
thorax -1.84186 0.782799 2.79805
lowerneck -16.6511 -0.110342 -6.31223
upperneck 29.3588 3.11695 0.154285
head 12.4293 1.17283 1.72457
rclavicle -4.77083e-014 -2.78299e-014
rhumerus -25.8294 -4.86632 -77.5729
rradius 23.7781
rwrist -6.06704
rhand -18.9765 12.6243
rfingers 7.12502
rthumb 7.32784 -17.2288
lclavicle -4.77083e-014 -2.78299e-014
lhumerus -37.3392 4.63771 86.9621
lradius 36.6389
lwrist 4.20495
lhand -18.1671 19.7867
lfingers 7.12502
lthumb 8.1091 49.6111
rfemur -8.46567 -1.66788 24.6823
rtibia 26.0656
rfoot -18.0565 -2.28527
rtoes 7.59061
lfemur -17.9944 7.76639 -14.7243
ltibia 37.3613
lfoot -15.3842 4.60254
ltoes -1.03239
2809
root 30.4275 18.1984 22.8018 1627.19 27.6234 -533.512
lowerback 8.04273 0.657884 4.66797
upperback 2.76048 1.7395 4.87091
thorax -1.67483 1.02936 2.25212
lowerneck -17.1846 -0.531806 -5.79737
upperneck 29.4906 2.31719 0.323697
head 12.6208 0.882805 1.58748
rclavicle 7.15625e-015 -6.20208e-014
rhumerus -25.8897 -6.25745 -77.3369
rradius 24.1598
rwrist -6.33731
rhand -19.6175 12.2624
rfingers 7.12502
rthumb 6.70905 -17.6113
lclavicle 7.15625e-015 -6.20208e-014
lhumerus -36.9991 3.40344 86.9451
lradius 36.2646
lwrist 4.35132
lhand -18.096 20.2614
lfingers 7.12502
lthumb 8.17769 50.0832
rfemur -8.51434 -1.93234 24.5465
rtibia 26.1489
rfoot -18.1314 -2.74321
rtoes 6.46324
lfemur -17.9581 9.14207 -15.2673
ltibia 37.6589
lfoot -15.2749 5.21581
ltoes 2.72892
2810
root 30.4313 18.1918 22.7998 1626.94 26.8372 -533.942
lowerback 7.95108 0.974951 4.92295
upperback 2.75049 2.1272 4.36789
thorax -1.60728 1.21013 1.55366
lowerneck -17.2711 -0.867874 -5.2077
upperneck 29.5031 1.58369 0.51249
head 12.6656 0.648403 1.44607
rclavicle 1.8487e-014 4.53229e-014
rhumerus -26.2556 -7.22808 -77.2701
rradius 24.6983
rwrist -7.05487
rhand -20.2393 11.875
rfingers 7.12502
rthumb 6.1088 -18.017
lclavicle 1.8487e-014 4.53229e-014
lhumerus -36.6996 2.24565 86.7135
lradius 35.6082
lwrist 4.37212
lhand -17.1459 21.2365
lfingers 7.12502
lthumb 9.09453 51.0205
rfemur -8.53135 -2.16548 24.2252
rtibia 26.318
rfoot -18.2617 -3.25768
rtoes 6.00605
lfemur -17.8199 10.1712 -15.9451
ltibia 37.7755
lfoot -15.1368 5.91895
ltoes 7.63729
2811
root 30.4396 18.1806 22.7934 1626.87 25.9258 -533.956
lowerback 7.78395 0.298685 4.57553
upperback 2.52768 1.24779 4.96924
thorax -1.77349 0.780028 2.45328
lowerneck -16.3751 -0.38663 -6.41726
upperneck 29.2599 2.64528 0.491564
head 12.3408 1.01283 1.79638
rclavicle 3.18055e-015 -5.40694e-014
rhumerus -26.4036 -3.96628 -77.1244
rradius 25.2926
rwrist -8.57498
rhand -20.8174 11.621
rfingers 7.12502
rthumb 5.55062 -18.2863
lclavicle 3.18055e-015 -5.40694e-014
lhumerus -37.5919 4.84789 86.6164
lradius 35.0995
lwrist 3.94135
lhand -16.6779 21.902
lfingers 7.12502
lthumb 9.54613 51.6657
rfemur -8.51454 -1.8992 24.3571
rtibia 26.5771
rfoot -18.6684 -4.14621
rtoes 7.71538
lfemur -17.6304 11.1917 -16.1448
ltibia 37.7718
lfoot -15.1639 5.85451
ltoes 10.9604
2812
root 30.4549 18.1807 22.787 1626.88 25.0491 -533.858
lowerback 7.77289 -0.755798 3.46245
upperback 2.05337 -0.107513 6.21859
thorax -2.23937 0.131624 4.52084
lowerneck -14.817 0.452959 -8.42869
upperneck 28.8449 4.46858 0.223602
head 11.7718 1.64414 2.26818
rclavicle 1.35174e-014 0
rhumerus -26.4648 0.48833 -76.5016
rradius 25.6063
rwrist -9.28139
rhand -20.7657 11.5115
rfingers 7.12502
rthumb 5.60059 -18.3945
lclavicle 1.35174e-014 0
lhumerus -39.3735 9.35644 86.5367
lradius 34.6856
lwrist 3.14192
lhand -16.8365 21.6761
lfingers 7.12502
lthumb 9.39313 51.4468
rfemur -8.46753 -1.83328 24.5988
rtibia 26.7764
rfoot -19.049 -4.71008
rtoes 8.73108
lfemur -17.429 12.477 -16.2373
ltibia 37.6926
lfoot -15.1802 5.55314
ltoes 6.26981
2813
root 30.4721 18.1781 22.7834 1626.7 24.3144 -533.979
lowerback 7.65984 0.571048 4.67675
upperback 2.46455 1.60126 4.8395
thorax -1.76699 0.952851 2.23038
lowerneck -16.134 -0.830928 -6.32077
upperneck 28.9543 1.81311 0.858666
head 12.1938 0.707285 1.78558
rclavicle 3.24019e-014 2.14687e-014
rhumerus -26.6727 -5.49968 -76.2513
rradius 25.9069
rwrist -8.46268
rhand -20.1818 11.8821
rfingers 7.12502
rthumb 6.16433 -18.0082
lclavicle 3.24019e-014 2.14687e-014
lhumerus -37.4723 4.71438 86.2889
lradius 33.5167
lwrist 3.32464
lhand -16.9462 21.8798
lfingers 7.12502
lthumb 9.28721 51.6552
rfemur -8.28634 -2.11332 24.5694
rtibia 26.8736
rfoot -19.2019 -4.80702
rtoes 8.99428
lfemur -17.216 13.7678 -16.5398
ltibia 37.5982
lfoot -15.2424 5.6545
ltoes -2.37482
2814
root 30.4863 18.1685 22.781 1626.66 23.4646 -533.812
lowerback 7.61471 0.277035 4.4891
upperback 2.25549 1.23852 5.23044
thorax -1.96976 0.778034 2.77486
lowerneck -15.3511 -0.613318 -6.79456
upperneck 28.6483 2.24668 0.790463
head 11.8948 0.866427 1.89133
rclavicle 2.34566e-014 2.78299e-014
rhumerus -26.8489 -4.30561 -75.9075
rradius 26.1616
rwrist -9.06971
rhand -19.6632 12.324
rfingers 7.12502
rthumb 6.66498 -17.5511
lclavicle 2.34566e-014 2.78299e-014
lhumerus -38.1268 6.31311 86.0586
lradius 32.925
lwrist 3.39279
lhand -17.176 22.5362
lfingers 7.12502
lthumb 9.06556 52.3214
rfemur -8.12218 -2.40299 24.8596
rtibia 26.8918
rfoot -19.3637 -5.095
rtoes 10.0495
lfemur -17.0622 14.3843 -16.4283
ltibia 37.3828
lfoot -15.5041 5.38843
ltoes 0.373611
2815
root 30.4941 18.1526 22.7778 1626.7 22.3617 -533.73
lowerback 7.51726 0.568612 5.30304
upperback 2.30926 1.63553 4.68835
thorax -1.82755 0.966001 1.72155
lowerneck -16.0482 -1.01517 -5.8328
upperneck 28.7299 1.34602 0.950108
head 12.1027 0.566757 1.66216
rclavicle 6.30147e-014 5.08889e-014
rhumerus -26.6433 -6.83066 -75.9631
rradius 26.1072
rwrist -8.72908
rhand -19.9934 12.7661
rfingers 7.12502
rthumb 6.34618 -17.1189
lclavicle 6.30147e-014 5.08889e-014
lhumerus -37.4387 4.98014 85.5911
lradius 32.1587
lwrist 3.96348
lhand -17.2088 22.6587
lfingers 7.12502
lthumb 9.03385 52.4452
rfemur -8.17083 -2.99276 25.103
rtibia 27.0151
rfoot -19.5722 -5.56424
rtoes 10.2826
lfemur -17.0082 14.3588 -16.3641
ltibia 36.9695
lfoot -15.7963 4.88145
ltoes 8.4484
